<?xml version="1.0" encoding="UTF-8"?>
<svg version="1.1" xmlns="http://www.w3.org/2000/svg" width="1000" height="1004">
<path d="M0 0 C2.93232924 0.05759932 3.97871074 0.17706913 6.5 1.8125 C8.28008225 4.44965889 9.19915948 7.04162685 10.20703125 10.04296875 C11.37797848 12.75340834 12.92955147 14.88027064 14.6875 17.25 C17.46931805 21.07354489 19.14983374 24.38239713 20.44921875 28.90234375 C21.32881471 31.77382897 22.45574588 34.48406049 23.625 37.25 C24.05425781 38.26578125 24.48351562 39.2815625 24.92578125 40.328125 C25.34214844 41.31296875 25.75851562 42.2978125 26.1875 43.3125 C28.49859924 48.89833703 30.62334853 54.48533727 32.46875 60.2421875 C33.23187353 62.5588094 33.23187353 62.5588094 34.75 65.625 C36.37765839 69.80029761 36.99037099 73.72430359 37.5625 78.15234375 C38.06627189 80.69954036 38.6696493 82.68530552 39.6171875 85.06640625 C41.43617217 89.71277382 42.38613094 94.42127138 43.3125 99.3125 C43.48136719 100.16328125 43.65023438 101.0140625 43.82421875 101.890625 C45.40976037 110.03057098 46.34355604 117.91597739 46.35546875 126.203125 C46.35879715 127.02899109 46.36212555 127.85485718 46.36555481 128.70574951 C46.37058739 130.4436386 46.37296428 132.18153723 46.37280273 133.91943359 C46.37498255 136.541508 46.39315931 139.16315638 46.41210938 141.78515625 C46.44233692 150.84825509 46.05785567 159.40736086 44.1875 168.3125 C43.84706859 170.31130403 43.51201505 172.31105025 43.1875 174.3125 C43.69966064 173.51368408 43.69966064 173.51368408 44.22216797 172.69873047 C60.13299099 147.92901704 60.13299099 147.92901704 67.8984375 138.16015625 C69.4388871 136.16823854 69.4388871 136.16823854 70.1875 132.75 C71.17190805 129.36609733 71.4808912 128.34849814 74.1875 126.3125 C76.74784542 125.87454618 79.21872453 125.81138484 81.8125 125.71875 C84.63863906 125.23533148 85.31416763 124.39631916 87.1875 122.3125 C92.1950595 120.38651558 95.97712489 119.9097067 101.1875 121.3125 C101.61160156 121.99441406 102.03570313 122.67632812 102.47265625 123.37890625 C103.03855469 124.01699219 103.60445312 124.65507812 104.1875 125.3125 C107.35501859 125.5323685 107.35501859 125.5323685 110.875 125.125 C115.82229875 124.99266485 118.81063802 124.96123908 122.625 128.25 C123.85989486 129.5610905 125.04796506 130.91772986 126.1875 132.3125 C127.07308594 133.34310547 127.07308594 133.34310547 127.9765625 134.39453125 C131.88119261 139.16781255 135.18438774 144.29281033 138.4140625 149.5390625 C139.76390586 151.65005102 141.14986197 153.57408207 142.6640625 155.55859375 C145.61177358 159.65220385 147.2621052 164.02057835 148.9375 168.75 C149.39189453 169.96139648 149.39189453 169.96139648 149.85546875 171.19726562 C153.11566104 180.18815147 153.36908462 188.71106526 153.375 198.1875 C153.38724609 199.21230469 153.39949219 200.23710937 153.41210938 201.29296875 C153.43443667 213.00735689 150.68816639 222.54701713 146.1875 233.3125 C145.91421875 234.03308594 145.6409375 234.75367188 145.359375 235.49609375 C140.84466763 246.14106555 129.75408326 254.90967194 121.62109375 262.83984375 C119.07457096 265.3242845 119.07457096 265.3242845 117.1875 268.3125 C121.5489527 266.95660797 123.35488516 265.23781747 126 261.5625 C129.13355017 257.43971944 132.19503406 254.6102412 136.4296875 251.6875 C139.09579846 249.60200876 140.47433205 247.2117073 142.1875 244.3125 C144.94973278 241.55026722 147.39456617 241.73393709 151.1875 241.3125 C151.55875 240.1678125 151.55875 240.1678125 151.9375 239 C153.58597135 235.45578659 155.51670001 234.22037762 158.8984375 232.3828125 C159.50945312 232.05023438 160.12046875 231.71765625 160.75 231.375 C161.32878906 231.07722656 161.90757812 230.77945313 162.50390625 230.47265625 C164.33459975 229.35818791 164.33459975 229.35818791 165.59765625 227.26953125 C168.04600479 224.25571646 170.94040431 224.16740951 174.6171875 223.4140625 C177.49255169 222.42761679 177.49255169 222.42761679 179.55078125 219.265625 C182.1875 216.3125 182.1875 216.3125 185.61328125 215.5703125 C186.89589844 215.52648437 188.17851563 215.48265625 189.5 215.4375 C197.68134718 214.88165273 203.67547768 212.03589306 210.76171875 208.08984375 C213.76029284 206.53414112 215.83683801 205.47888561 219.1875 205.3125 C221.14453125 206.203125 221.14453125 206.203125 223 207.5625 C225.73839821 209.45158298 228.06131059 210.69187577 231.25 211.625 C236.42528686 213.5198885 239.49056961 216.52670046 242.1875 221.3125 C245.86496842 231.50972927 245.60185284 242.84103156 246 253.5625 C246.02777527 254.24900635 246.05555054 254.9355127 246.08416748 255.64282227 C246.69638375 271.81999785 244.90583695 288.73230649 235.87890625 302.578125 C233.80639242 305.92860925 232.0998147 309.39896263 230.375 312.9375 C219.21054055 335.61716316 219.21054055 335.61716316 211.1875 345.3125 C210.53394531 346.13621094 209.88039063 346.95992188 209.20703125 347.80859375 C204.33696622 353.88540056 199.21025896 359.66496976 193.91015625 365.36328125 C190.51355334 369.01883429 187.23883369 372.78149055 183.96484375 376.546875 C182.1875 378.3125 182.1875 378.3125 180.1875 378.3125 C179.95289063 378.88484375 179.71828125 379.4571875 179.4765625 380.046875 C177.89343415 382.82934301 175.9883475 384.48320214 173.5625 386.5625 C172.33660156 387.62210937 172.33660156 387.62210937 171.0859375 388.703125 C170.45945312 389.23421875 169.83296875 389.7653125 169.1875 390.3125 C169.5175 390.6425 169.8475 390.9725 170.1875 391.3125 C171.1775 390.6525 172.1675 389.9925 173.1875 389.3125 C174.033125 389.065 174.87875 388.8175 175.75 388.5625 C178.90744247 387.4143391 181.1907736 386.10970695 184 384.3125 C188.07833699 381.77582353 191.52130347 380.55191083 196.22265625 379.7421875 C198.9059941 379.15537405 200.89055554 377.77999229 203.1875 376.3125 C204.05375 376.168125 204.92 376.02375 205.8125 375.875 C206.59625 375.689375 207.38 375.50375 208.1875 375.3125 C208.7909021 374.31827026 208.7909021 374.31827026 209.40649414 373.30395508 C211.1875 371.3125 211.1875 371.3125 214.21264648 370.8425293 C215.48180908 370.85711182 216.75097168 370.87169434 218.05859375 370.88671875 C218.78004578 370.88950836 219.5014978 370.89229797 220.24481201 370.89517212 C222.70548541 370.91018446 225.16470797 370.95479134 227.625 371 C229.38385515 371.01927257 231.14272724 371.03704583 232.90161133 371.0534668 C236.94050296 371.09525499 240.97895748 371.151285 245.01757812 371.21386719 C250.99114017 371.30242859 256.96440111 371.35398259 262.9384222 371.39547634 C269.09764334 371.43848466 275.25668543 371.49323045 281.41573429 371.55624485 C285.27932569 371.59573074 289.14285445 371.63142445 293.00656128 371.65756226 C296.69890768 371.68333679 300.39081761 371.72398648 304.08289337 371.77537155 C305.45802846 371.79212959 306.8332354 371.80385199 308.20845795 371.81019974 C310.1106887 371.81983111 312.01278545 371.84955588 313.91479492 371.88012695 C314.98581955 371.89123001 316.05684418 371.90233307 317.1603241 371.91377258 C320.67064565 372.376138 323.05212088 373.71033858 326.1875 375.3125 C328.73441284 375.74626818 328.73441284 375.74626818 331.30322266 375.68139648 C332.27087555 375.68827988 333.23852844 375.69516327 334.23550415 375.70225525 C335.77795303 375.69301781 335.77795303 375.69301781 337.3515625 375.68359375 C339.54687664 375.70096635 341.7421891 375.71855083 343.9375 375.73632812 C347.38512129 375.74642473 350.83263793 375.74999008 354.28027344 375.74829102 C357.61685334 375.75185269 360.95262585 375.77915396 364.2890625 375.80859375 C365.83758408 375.79631996 365.83758408 375.79631996 367.41738892 375.78379822 C374.52601082 375.85800538 374.52601082 375.85800538 377.86279297 378.15063477 C379.77812655 381.27637728 379.30898651 383.24713 378.6875 386.8125 C378.5121875 387.9365625 378.336875 389.060625 378.15625 390.21875 C377.07606862 393.66836151 375.9199554 395.013113 373.1875 397.3125 C369.32291418 400.80903002 367.3661885 403.20484983 366.1875 408.3125 C366.14302734 409.37017578 366.14302734 409.37017578 366.09765625 410.44921875 C365.89490768 415.22597507 365.38117973 417.60822856 361.8125 420.9375 C361.17699219 421.49953125 360.54148437 422.0615625 359.88671875 422.640625 C357.363327 425.12341045 356.48159725 428.04912433 355.1875 431.3125 C354.36272578 432.60260292 353.50456908 433.87161407 352.625 435.125 C348.93641304 440.46836657 345.88658019 446.14213766 342.79077148 451.84106445 C340.43948572 456.14842678 337.94985007 460.24988054 335.1875 464.3125 C334.26122046 465.89022889 333.34405798 467.47335719 332.4375 469.0625 C329.76622618 473.53904864 326.76456044 477.53348775 323.4453125 481.546875 C321.78913874 483.57554459 320.19057258 485.61228663 318.6171875 487.703125 C312.82457595 495.35921072 306.85698759 502.44202802 299.1875 508.3125 C298.5275 508.3125 297.8675 508.3125 297.1875 508.3125 C296.92839844 508.89644531 296.66929687 509.48039062 296.40234375 510.08203125 C290.82801087 520.31657812 277.57267871 525.4033705 267.1875 529.3125 C263.16793831 530.41920751 259.33682986 531.00284852 255.1875 531.3125 C253.95386719 531.47105469 253.95386719 531.47105469 252.6953125 531.6328125 C242.11247369 532.95144098 231.59264482 532.37739746 221 531.5 C219.62859863 531.39498169 219.62859863 531.39498169 218.22949219 531.2878418 C212.74038619 530.7918442 207.81021434 529.73312909 202.5690918 528.04125977 C198.99305098 526.94700227 195.36987039 526.31067037 191.6875 525.6875 C184.42907303 524.43328652 184.42907303 524.43328652 182.1875 523.3125 C180.61236092 523.19720996 179.03254867 523.14301575 177.45336914 523.11962891 C176.46796646 523.10356598 175.48256378 523.08750305 174.46730042 523.07095337 C169.92864686 523.02634398 165.39014053 522.98538058 160.85131836 522.96240234 C158.46645299 522.94591151 156.08163563 522.91871368 153.69702148 522.88037109 C150.24697382 522.82520103 146.79808756 522.80365973 143.34765625 522.7890625 C142.29514175 522.76639313 141.24262726 522.74372375 140.15821838 522.72036743 C129.82174165 522.74942656 120.13647516 526.6766288 112.5546875 533.859375 C111.97976563 534.40078125 111.40484375 534.9421875 110.8125 535.5 C110.30976562 536.00917969 109.80703125 536.51835938 109.2890625 537.04296875 C106.05751619 538.99511104 102.92894048 538.99103048 99.1875 539.3125 C99.07943856 542.23015891 99.00017123 545.14381125 98.9375 548.0625 C98.88722656 549.3 98.88722656 549.3 98.8359375 550.5625 C98.64216965 555.4888468 98.64216965 555.4888468 101.125 559.546875 C101.805625 560.12953125 102.48625 560.7121875 103.1875 561.3125 C104.015625 563.96875 104.015625 563.96875 104.4375 566.8125 C104.58703125 567.7509375 104.7365625 568.689375 104.890625 569.65625 C105.1875 572.3125 105.1875 572.3125 105.1875 576.3125 C106.58160982 577.23057232 107.98334717 578.13880604 109.41796875 578.9921875 C111.5951397 580.61665501 112.95184267 582.44043029 114.5625 584.625 C125.31228962 598.95026312 143.84325465 609.66181545 160.26171875 616.4453125 C162.1875 617.3125 162.1875 617.3125 165.4375 619.4375 C169.64380797 621.96716773 174.25189399 622.13497028 179.0390625 622.75390625 C182.61683712 623.38867271 185.23316816 624.53856416 188.37109375 626.30078125 C193.88648027 629.37279224 199.70653912 630.75119285 205.890625 631.78515625 C208.1875 632.3125 208.1875 632.3125 209.9609375 633.30859375 C213.34755931 634.83554428 216.90363832 634.97301799 220.5625 635.3125 C228.40720588 636.04794118 228.40720588 636.04794118 232.1484375 637.31640625 C236.22475061 638.65247289 240.17565656 638.92161808 244.4375 639.25 C246.40630505 639.41209309 248.37505122 639.57490246 250.34375 639.73828125 C251.42785156 639.82674316 252.51195312 639.91520508 253.62890625 640.00634766 C257.51637565 640.34079378 261.39858765 640.72021867 265.28125 641.10546875 C278.27405113 642.37583081 291.11661135 643.53941436 304.1875 643.3125 C314.69491882 643.1348363 325.03839416 643.73891072 335.5 644.625 C336.24886475 644.68421631 336.99772949 644.74343262 337.76928711 644.80444336 C339.9063366 644.97630316 342.04089429 645.16653966 344.17578125 645.36328125 C345.40852783 645.47325439 346.64127441 645.58322754 347.91137695 645.6965332 C351.62585587 646.39491835 354.48533656 647.61033656 357.1875 650.3125 C357.64793165 657.44919065 357.64793165 657.44919065 356.1875 660.1875 C349.82298152 663.76754165 341.82519876 663.89586179 334.70703125 664.421875 C333.58222855 664.50596619 332.45742584 664.59005737 331.29853821 664.67669678 C318.21946842 665.56497749 305.1380374 665.61668142 292.03588867 665.57324219 C288.55603771 665.56179228 285.07649099 665.5686654 281.59665012 665.58012962 C262.36478777 665.63375298 243.05921825 665.46692978 224.1875 661.3125 C224.97253906 661.89257812 225.75757813 662.47265625 226.56640625 663.0703125 C227.61699219 663.85148438 228.66757812 664.63265625 229.75 665.4375 C230.29849609 665.84403809 230.84699219 666.25057617 231.41210938 666.66943359 C234.47911387 668.96244493 237.38145226 671.33407715 240.1875 673.9375 C242.82473223 676.59678357 242.82473223 676.59678357 245.25 676.0859375 C247.37945208 675.38358685 247.37945208 675.38358685 249.1875 673.3125 C251.3125 673.6875 251.3125 673.6875 253.1875 674.3125 C253.875 676.125 253.875 676.125 254.1875 678.3125 C252.75 680.0625 252.75 680.0625 251.1875 681.3125 C252.51044755 685.12098536 254.11027198 687.70535992 256.8125 690.6875 C257.75996094 691.75097656 257.75996094 691.75097656 258.7265625 692.8359375 C260.7712319 694.89358893 262.83866334 696.70942317 265.05859375 698.56640625 C269.29171641 702.23248737 272.44194345 706.29118055 275.625 710.875 C276.17994141 711.66221436 276.73488281 712.44942871 277.30664062 713.26049805 C278.94718936 715.60207318 280.56939728 717.95537712 282.1875 720.3125 C282.64398926 720.96798828 283.10047852 721.62347656 283.57080078 722.29882812 C290.91109798 732.88682087 295.42809801 743.6178731 298.5 756.125 C298.67184814 756.81827393 298.84369629 757.51154785 299.02075195 758.22583008 C300.9227151 766.53984235 300.24849247 773.59789944 298.0625 781.75 C297.72581299 783.00731934 297.72581299 783.00731934 297.38232422 784.29003906 C295.63142301 790.45850614 293.50118553 795.47819725 289.1875 800.3125 C288.66414062 800.92996094 288.14078125 801.54742188 287.6015625 802.18359375 C281.2226667 809.14647297 273.06082615 813.39697855 264.1875 816.3125 C263.259375 816.6528125 262.33125 816.993125 261.375 817.34375 C259.8590625 817.88515625 259.8590625 817.88515625 258.3125 818.4375 C257.38695312 818.77007813 256.46140625 819.10265625 255.5078125 819.4453125 C245.65670449 822.01819012 235.24000073 821.55001234 225.125 821.5625 C224.33458313 821.56450409 223.54416626 821.56650818 222.72979736 821.568573 C209.58394067 821.57670022 196.7872881 820.63550922 183.77636719 818.67626953 C179.59354217 818.08852818 175.39345175 817.69418699 171.1875 817.3125 C169.41444573 820.60531507 167.99735612 823.79914447 166.9296875 827.37109375 C165.11062922 832.90591477 162.44763394 837.85666945 159.625 842.9375 C158.82654663 844.38382813 158.82654663 844.38382813 158.01196289 845.859375 C135.49670697 886.15513504 135.49670697 886.15513504 117.48828125 893.33984375 C114.26754852 894.70140988 111.32519668 896.46902587 108.328125 898.26171875 C102.74500298 901.00233887 96.50537332 900.49595475 90.4375 900.5 C89.48617188 900.51224609 88.53484375 900.52449219 87.5546875 900.53710938 C69.86936373 900.57344908 58.67056392 891.94034688 45.65625 880.828125 C44.1875 879.3125 44.1875 879.3125 44.1875 877.3125 C42.33125 877.4671875 42.33125 877.4671875 40.4375 877.625 C30.46788864 877.56239647 22.22798315 872.47908554 15.25390625 865.6953125 C9.61082133 859.18816354 8.0590908 851.8131889 8.1875 843.3125 C8.6318667 840.0097745 9.58460892 837.31731847 11.3125 834.4375 C14.4036946 832.58278324 17.64944853 832.19479574 21.1875 832.3125 C24.94927303 833.90080417 26.96563419 835.92123113 29.1875 839.3125 C30.8375 838.6525 32.4875 837.9925 34.1875 837.3125 C33.61405063 834.44525314 33.3260485 833.4510485 31.1875 831.3125 C28.45438036 831.22191374 28.45438036 831.22191374 25.375 831.4375 C19.57287901 831.49289018 19.57287901 831.49289018 16.25 829.9375 C13.20683296 826.06437831 11.1967606 821.79272363 9.1875 817.3125 C4.96363684 817.03703066 1.81346252 817.33111501 -2.19140625 818.71875 C-8.65592883 820.72173303 -15.15820639 821.36070236 -21.875 822 C-23.16631836 822.1244751 -24.45763672 822.2489502 -25.78808594 822.37719727 C-47.14281925 824.33913992 -71.40314628 824.8109631 -90.8125 814.3125 C-92.29909613 813.56954558 -93.78611401 812.82743474 -95.2734375 812.0859375 C-107.31281618 805.92985221 -114.43223628 800.78425899 -118.75 787.5 C-122.90880132 772.92467048 -121.91678031 758.46450125 -116.8125 744.3125 C-116.61317871 743.63952881 -116.41385742 742.96655762 -116.20849609 742.27319336 C-114.32464311 736.04445683 -111.45039107 730.78496704 -108.0625 725.25 C-107.56234375 724.40373047 -107.0621875 723.55746094 -106.546875 722.68554688 C-103.54820075 717.72472991 -100.29523014 713.37053373 -96.39697266 709.08374023 C-94.36123561 706.80804343 -92.617441 704.37999724 -90.875 701.875 C-81.51195537 688.84265409 -81.51195537 688.84265409 -75.125 684.875 C-70.54893267 681.87293305 -68.93179716 677.17989677 -66.8125 672.3125 C-66.2169589 671.09989223 -65.61443295 669.89064544 -65 668.6875 C-64.608125 667.90375 -64.21625 667.12 -63.8125 666.3125 C-62.4925 666.3125 -61.1725 666.3125 -59.8125 666.3125 C-60.37304661 669.67577963 -61.23091038 672.30362219 -62.8125 675.3125 C-62.255625 674.87679687 -61.69875 674.44109375 -61.125 673.9921875 C-58.69182708 672.0933262 -56.25283012 670.20215284 -53.8125 668.3125 C-53.05066406 667.71824219 -52.28882813 667.12398437 -51.50390625 666.51171875 C-50.80136719 665.97160156 -50.09882813 665.43148437 -49.375 664.875 C-48.73691406 664.38128906 -48.09882813 663.88757813 -47.44140625 663.37890625 C-45.8125 662.3125 -45.8125 662.3125 -43.8125 662.3125 C-43.8125 661.6525 -43.8125 660.9925 -43.8125 660.3125 C-44.64265625 660.50585938 -45.4728125 660.69921875 -46.328125 660.8984375 C-65.43033042 664.93467756 -85.3285476 665.83298141 -104.8125 665.3125 C-106.67283375 665.27384831 -108.533168 665.23521989 -110.39350891 665.19691467 C-113.18462412 665.13651381 -115.9754096 665.06571424 -118.76620483 664.99209595 C-120.15565023 664.95612371 -121.54515919 664.92251667 -122.9347229 664.89144897 C-141.42524034 664.46103369 -141.42524034 664.46103369 -146.3125 660.0625 C-148.12311196 656.74304475 -148.43377371 655.04014226 -147.8125 651.3125 C-146.35406978 648.39563955 -145.13261969 646.77698001 -141.98828125 645.6706543 C-132.72039533 643.71861593 -123.27992506 643.93206549 -113.85107422 643.85620117 C-104.83908042 643.77003901 -96.30628136 643.26473653 -87.47122192 641.42567444 C-80.33730444 639.94822165 -73.23025896 639.54433489 -65.97265625 639.140625 C-59.59312014 638.72017395 -53.70267772 637.72355558 -47.53173828 636.03735352 C-44.84679519 635.32164189 -42.16800576 634.76118447 -39.4375 634.25 C-36.79558762 633.74338923 -34.43008021 633.18231454 -31.875 632.3125 C-29.1938691 631.43702869 -26.96000884 631.05716784 -24.1875 630.6875 C-13.74274805 628.9250384 -3.21678821 624.12170749 6.1875 619.3125 C6.5175 619.6425 6.8475 619.9725 7.1875 620.3125 C13.70664178 620.00664214 18.79231244 617.38097222 24.5625 614.5 C26.36143567 613.61738098 28.16091046 612.73585988 29.9609375 611.85546875 C30.83516357 611.42508301 31.70938965 610.99469727 32.61010742 610.55126953 C35.05648902 609.37546767 37.52231697 608.2725386 40.01171875 607.19140625 C49.38820769 603.0707735 57.3682789 596.84265212 65.1875 590.3125 C64.6925 589.219375 64.1975 588.12625 63.6875 587 C61.01749681 579.78719517 61.88545777 572.68756498 63.1875 565.25 C64.6097961 556.95661145 64.35684559 548.69510661 64.1875 540.3125 C62.94484375 540.51101563 61.7021875 540.70953125 60.421875 540.9140625 C57.24274344 541.30760257 55.21254148 541.48715562 52.4375 539.6875 C51.86 539.31625 51.2825 538.945 50.6875 538.5625 C49.1875 537.3125 49.1875 537.3125 47.4375 534.6875 C43.77126604 530.81758637 39.31302105 531.00435886 34.1875 530.3125 C32.70593057 530.05842013 31.22551517 529.79755214 29.74609375 529.53125 C28.57264404 529.32266357 28.57264404 529.32266357 27.37548828 529.10986328 C25.82784176 528.83469077 24.28061567 528.55713968 22.73388672 528.27685547 C16.14465081 527.15080082 9.79516352 526.40006274 3.375 528.75 C-0.26275196 529.95329927 -3.48811261 530.53423766 -7.3125 530.75 C-11.05205511 531.00969133 -13.89517709 531.59432411 -17.3125 533.125 C-27.10901477 537.421717 -38.34968744 538.86603931 -48.875 540.375 C-53.49579494 541.03843907 -57.74245016 542.11942345 -62.1875 543.515625 C-83.39114088 549.95244455 -105.67040655 548.87025963 -125.8125 539.3125 C-126.63878906 538.94382812 -127.46507812 538.57515625 -128.31640625 538.1953125 C-136.11958091 534.54985991 -142.56436366 529.79171176 -148.4375 523.5 C-151.00855587 520.78544334 -151.7239623 520.33463443 -155.5625 519.375 C-156.635 519.024375 -157.7075 518.67375 -158.8125 518.3125 C-159.52569398 516.36572922 -160.23373571 514.41672021 -160.90136719 512.45385742 C-162.39596829 508.94122444 -164.87945964 506.58973909 -167.5625 503.9375 C-172.0774928 499.28750742 -175.96863808 494.59905321 -179.5078125 489.140625 C-180.69418694 487.17655442 -180.69418694 487.17655442 -182.8125 486.3125 C-183.89408003 483.99482852 -184.86619598 481.68641784 -185.8125 479.3125 C-186.57822439 477.41459742 -187.3495282 475.51894074 -188.125 473.625 C-188.67607422 472.25794922 -188.67607422 472.25794922 -189.23828125 470.86328125 C-190.603392 467.78416047 -192.06005472 464.79819442 -193.578125 461.79296875 C-197.56897237 453.87802287 -201.21521478 445.80915444 -204.86914062 437.734375 C-208.02402465 430.85650058 -211.42921472 424.34145304 -215.45092773 417.92749023 C-217.17604526 414.6142871 -217.38320105 411.87908098 -217.515625 408.2109375 C-218.03210875 404.90815985 -220.34892587 403.36547844 -222.8125 401.3125 C-225.99743895 398.12756105 -226.66525648 394.87423985 -226.98828125 390.48828125 C-226.8125 388.3125 -226.8125 388.3125 -225 385.5625 C-220.82532871 382.6156732 -216.47411166 380.38837394 -211.8125 378.3125 C-211.05945084 377.96803329 -210.30640167 377.62356659 -209.53053284 377.2686615 C-206.49658528 376.20136614 -204.03569524 375.996382 -200.82397461 375.90063477 C-199.03220543 375.84298195 -199.03220543 375.84298195 -197.20423889 375.78416443 C-195.90836349 375.75355423 -194.6124881 375.72294403 -193.27734375 375.69140625 C-191.90038053 375.65346597 -190.52342241 375.61534022 -189.14646912 375.57704163 C-173.33291482 375.16559602 -157.5156804 375.19715737 -141.69812012 375.24383545 C-137.74080983 375.25433643 -133.78349227 375.2586884 -129.82617188 375.26367188 C-122.15492935 375.27418147 -114.48372071 375.29108869 -106.8125 375.3125 C-107.8025 373.8275 -107.8025 373.8275 -108.8125 372.3125 C-109.34532588 366.34485014 -109.34532588 366.34485014 -107.8125 363.375 C-104.45808048 361.59296463 -101.57470155 362.01391258 -97.8125 362.3125 C-95.36926963 364.75573037 -95.12260318 365.901365 -94.8125 369.3125 C-95.75 372.625 -95.75 372.625 -96.8125 375.3125 C-88.52231231 374.96635438 -80.85218866 373.59612475 -74.75 367.5625 C-74.110625 366.82 -73.47125 366.0775 -72.8125 365.3125 C-74.09833984 365.13847656 -74.09833984 365.13847656 -75.41015625 364.9609375 C-78.91431244 364.29309602 -81.93677113 363.25006366 -85.25 361.9375 C-86.85681641 361.30714844 -86.85681641 361.30714844 -88.49609375 360.6640625 C-90.75006613 359.74548247 -92.98960707 358.79084291 -95.21484375 357.8046875 C-98.38338692 356.49048175 -101.48378203 355.45672212 -104.76025391 354.47509766 C-115.68273595 351.15107699 -125.34995592 346.09531976 -135.33642578 340.63476562 C-138.30544566 339.04925866 -141.32434048 337.5940908 -144.36303711 336.14819336 C-151.10817559 332.92745317 -156.86672657 329.27587307 -162.73828125 324.58984375 C-165.60732111 322.46449402 -168.46786418 320.75786356 -171.58154297 319.03637695 C-178.48467825 315.20706811 -182.70960453 311.64044295 -187.0625 304.8671875 C-188.77363262 302.36923944 -190.41675484 300.71737593 -192.75 298.8125 C-197.86813328 294.60226171 -201.74951147 289.51820405 -205.8125 284.3125 C-206.70810707 283.18341424 -207.60394681 282.054513 -208.5 280.92578125 C-212.46036602 275.88596271 -215.98746658 271.09208127 -218.8125 265.3125 C-219.616875 264.384375 -220.42125 263.45625 -221.25 262.5 C-223.7916896 259.56612091 -225.16867851 256.57128002 -226.640625 253 C-227.81101141 250.31591384 -229.12972619 247.73567003 -230.4855957 245.14135742 C-233.18072244 239.96331322 -235.37963403 235.15548982 -236.36328125 229.359375 C-236.85738911 227.10796181 -237.67326176 225.31733618 -238.6875 223.25 C-240.68105201 218.96727419 -242.02030005 214.61136077 -243.25 210.0625 C-243.45028809 209.37663818 -243.65057617 208.69077637 -243.85693359 207.98413086 C-244.75431552 204.49388615 -244.99543462 202.71143613 -243.47265625 199.390625 C-241.8125 197.3125 -241.8125 197.3125 -240.8125 196.3125 C-239.554375 196.23 -238.29625 196.1475 -237 196.0625 C-233.51151801 195.68873407 -233.02374529 195.54087329 -230.5 192.8125 C-229.943125 191.9875 -229.38625 191.1625 -228.8125 190.3125 C-225.33222258 189.15240753 -222.47928357 189.10833479 -218.8125 189.0625 C-217.575 189.03671875 -216.3375 189.0109375 -215.0625 188.984375 C-211.477112 189.34636129 -211.04857439 189.73191415 -208.8125 192.3125 C-206.64769674 193.025094 -206.64769674 193.025094 -204.3125 193.375 C-201.03077148 193.94930249 -199.69147329 194.39318448 -196.8125 196.3125 C-194.45900281 196.6144098 -194.45900281 196.6144098 -191.84765625 196.5859375 C-190.88279297 196.6065625 -189.91792969 196.6271875 -188.92382812 196.6484375 C-186.89526688 196.67442803 -184.86659151 196.69268795 -182.83789062 196.703125 C-175.34606049 196.88304887 -175.34606049 196.88304887 -172.41015625 199.24609375 C-171.88292969 199.92800781 -171.35570312 200.60992187 -170.8125 201.3125 C-168.55342503 202.37214178 -168.55342503 202.37214178 -166.1875 203 C-161.86987705 204.28381148 -161.86987705 204.28381148 -159.8125 205.3125 C-158.32710006 205.42874087 -156.83724591 205.49107125 -155.34765625 205.5234375 C-154.46529297 205.55179688 -153.58292969 205.58015625 -152.67382812 205.609375 C-150.81204791 205.66134374 -148.95003758 205.70564923 -147.08789062 205.7421875 C-146.20423828 205.773125 -145.32058594 205.8040625 -144.41015625 205.8359375 C-143.60070557 205.85575684 -142.79125488 205.87557617 -141.95727539 205.89599609 C-139.33627906 206.40497956 -138.55069409 207.34766638 -136.8125 209.3125 C-134.43469473 210.4321861 -134.43469473 210.4321861 -131.75 211.3125 C-130.28433594 211.82103516 -130.28433594 211.82103516 -128.7890625 212.33984375 C-125.254056 213.49498367 -121.69942416 214.56225682 -118.12890625 215.6015625 C-116.06034368 216.23643331 -114.07383056 216.95571659 -112.0625 217.75 C-107.17918687 219.64740183 -102.12941661 220.96199037 -97.08203125 222.34765625 C-92.16210713 223.7995335 -88.33361709 225.4701452 -84.1875 228.5 C-78.20117932 232.78485156 -72.05642319 236.84273991 -65.69140625 240.546875 C-60.65558469 243.50554682 -56.54540229 247.11760718 -52.3046875 251.12890625 C-49.84509768 253.39232363 -49.84509768 253.39232363 -46.9140625 255.17578125 C-43.20658284 257.72992656 -40.34895469 260.63555106 -37.3125 263.9375 C-36.71083008 264.58775146 -36.10916016 265.23800293 -35.48925781 265.90795898 C-29.03136086 273.00074269 -23.15248064 280.51769172 -17.40380859 288.19042969 C-15.93428798 290.15009111 -14.44693189 292.09489184 -12.95703125 294.0390625 C-6.4357725 302.68749948 1.37740592 313.37695626 1.8125 324.5625 C1.18228035 328.34381793 1.00961436 329.06036933 -1.8125 331.3125 C-2.4725 331.3125 -3.1325 331.3125 -3.8125 331.3125 C-3.1525 332.26125 -2.4925 333.21 -1.8125 334.1875 C0.1875 337.3125 0.1875 337.3125 0.1875 339.3125 C1.30511719 339.66441406 1.30511719 339.66441406 2.4453125 340.0234375 C5.65343951 341.53153139 6.92382408 343.14213521 9.0625 345.9375 C12.17050126 349.79852962 12.17050126 349.79852962 17 350.6875 C18.051875 350.56375 19.10375 350.44 20.1875 350.3125 C21.90625 351.51953125 21.90625 351.51953125 23.1875 353.3125 C23.19921875 355.30078125 23.19921875 355.30078125 22.875 357.625 C22.63852705 364.68834432 26.54029196 369.80223731 30.12695312 375.56201172 C35.5325895 384.48429827 40.94635596 394.56631906 39.1875 405.3125 C37.4375 407.375 37.4375 407.375 35.1875 408.3125 C33.8675 408.3125 32.5475 408.3125 31.1875 408.3125 C31.73277344 409.13041016 31.73277344 409.13041016 32.2890625 409.96484375 C33.3507619 411.55739285 34.4105089 413.15124454 35.46875 414.74609375 C36.55838082 416.37311068 37.66107159 417.99151809 38.78125 419.59765625 C41.82489106 424.00006565 44.25569124 428.32839885 46.32421875 433.265625 C47.03877117 434.95985789 47.85127743 436.61239746 48.6875 438.25 C50.77186051 442.50556938 52.46911849 446.89878911 54.1875 451.3125 C53.92974693 448.64399767 53.65668193 445.97849752 53.375 443.3125 C53.30474609 442.56871094 53.23449219 441.82492187 53.16210938 441.05859375 C52.65693463 436.41098613 51.63057281 432.48396159 49.8762207 428.15673828 C48.9078105 425.56355478 48.54125651 422.98792801 48.1875 420.25 C47.47341496 415.48943306 46.11638348 411.73285797 44.1875 407.3125 C43.60420417 404.50463456 43.13610209 401.69975405 42.71484375 398.86328125 C42.3071068 396.33221932 42.3071068 396.33221932 41.171875 394.30078125 C39.97807232 391.88948933 39.79312618 389.85989714 39.5 387.1875 C38.51240788 380.71679646 36.31181437 375.05999693 33.86108398 369.03662109 C32.02302039 364.50811402 30.4174489 360.01594966 29.0625 355.3125 C27.6305452 350.39941369 25.67282869 346.15153788 23.27734375 341.64453125 C21.88489293 338.66498594 21.31464847 335.76687706 20.71484375 332.55078125 C19.50219662 327.40376788 17.10515438 322.68898157 14.1875 318.3125 C12.4859375 317.8484375 12.4859375 317.8484375 10.75 317.375 C8.875 316.64453125 8.875 316.64453125 7.1875 315.3125 C4.51306886 309.10001933 4.1875 302.98596945 4.1875 296.3125 C2.209454 290.98401779 -0.49698993 286.53130307 -3.625 281.8125 C-8.49042846 274.27228078 -11.71548481 266.7159275 -14.8125 258.3125 C-18.00902526 250.58618377 -21.56566648 243.82581057 -26.8125 237.3125 C-28.75291973 233.41823203 -28.98004798 230.61983709 -28.5625 226.3125 C-28.47484375 225.301875 -28.3871875 224.29125 -28.296875 223.25 C-27.81825854 220.34742273 -26.94113085 218.01479094 -25.8125 215.3125 C-25.64451738 212.60363059 -25.64451738 212.60363059 -25.8125 210.3125 C-26.40675781 210.05339844 -27.00101563 209.79429687 -27.61328125 209.52734375 C-29.9877697 208.21568139 -31.25958567 206.9420106 -33 204.875 C-33.59941406 204.16730469 -34.19882812 203.45960938 -34.81640625 202.73046875 C-44.29350195 191.2503861 -44.29350195 191.2503861 -47.21484375 187.5234375 C-51.13931082 182.58151601 -55.95134883 178.69584462 -60.77734375 174.67578125 C-65.59092607 170.63562865 -65.59092607 170.63562865 -67.3125 168.125 C-68.84184141 165.98275601 -68.84184141 165.98275601 -72.25 164.9375 C-76.54787774 162.97706454 -77.24093177 161.20658903 -79.8125 157.3125 C-85.41671377 152.12965569 -91.70447144 147.95729761 -98.1796875 143.953125 C-100.50203788 142.50596304 -102.75057024 140.99413961 -105 139.4375 C-113.19039825 133.94771955 -121.96876671 128.74897036 -131.125 125.0625 C-134.80852652 123.52363542 -136.03458177 121.95723237 -137.8125 118.3125 C-138.6375 117.57 -139.4625 116.8275 -140.3125 116.0625 C-143.56119465 112.48893588 -144.58019667 108.91109534 -145.8125 104.3125 C-141.64328895 100.65460728 -138.28950858 100.52880099 -132.875 100.62109375 C-123.7926807 101.70572164 -113.97233118 106.97668558 -106.359375 111.8984375 C-102.32560382 114.13804665 -97.96441494 115.29036683 -93.5625 116.625 C-86.57520959 118.79112345 -79.63367166 121.02360092 -72.75 123.5 C-71.36999701 123.98886129 -69.98979473 124.47716045 -68.609375 124.96484375 C-66.25899846 125.79545884 -63.91752709 126.64216997 -61.578125 127.50390625 C-45.83033734 132.91970632 -22.42006208 136.00145518 -6.8125 129.3125 C-6.998125 128.24 -7.18375 127.1675 -7.375 126.0625 C-7.75643747 122.79303594 -7.71052485 121.31922022 -6.8125 118.3125 C-12.24799353 120.99036369 -15.90964803 122.81235943 -18.8125 128.3125 C-20.625 129.375 -20.625 129.375 -22.8125 129.3125 C-24.21962785 128.34091172 -25.62276822 127.36255791 -26.99609375 126.34375 C-29.18731691 125.09970072 -31.00968193 124.84730268 -33.5 124.5 C-42.44169389 122.95136326 -49.92843988 117.26930397 -55.5078125 110.26171875 C-59.75835922 103.91135105 -59.81399808 95.68960641 -58.8125 88.3125 C-56.02290591 81.4103058 -50.82959652 77.35718729 -44.8125 73.3125 C-41.19840419 70.53889159 -37.99006765 67.57833342 -34.8125 64.3125 C-32.06020285 61.56020285 -25.12279398 62.17119547 -21.4375 62.0625 C-12.58104678 62.19577084 -6.93231242 64.57440787 -0.5390625 70.69140625 C1.29716051 72.50487533 1.29716051 72.50487533 4.1875 74.3125 C2.47301224 56.33462621 2.47301224 56.33462621 -2.4375 39.125 C-4.3340267 34.71606423 -4.23925387 30.16365733 -4.49609375 25.42578125 C-4.78241222 22.6085489 -5.27983353 20.58255535 -6.375 18 C-8.10757156 13.5555773 -8.27740635 11.03904785 -7.8125 6.3125 C-4.92078488 0.40334302 -4.92078488 0.40334302 0 0 Z M0.4609375 108.9921875 C-0.47878906 110.07886719 -0.47878906 110.07886719 -1.4375 111.1875 C-2.06914062 111.90679687 -2.70078125 112.62609375 -3.3515625 113.3671875 C-5.01267123 115.17356933 -5.01267123 115.17356933 -4.8125 117.3125 C-2.1725 117.3125 0.4675 117.3125 3.1875 117.3125 C4.33102916 115.02544169 4.29084439 113.71985238 4.25 111.1875 C4.229375 109.90875 4.20875 108.63 4.1875 107.3125 C2.02495483 107.08006336 2.02495483 107.08006336 0.4609375 108.9921875 Z M24.1875 217.3125 C22.87516499 219.16572984 21.63748356 221.07211943 20.4375 223 C17.33821565 227.77759717 14.66768221 230.90366571 10.1875 234.3125 C8.59931426 236.07935663 7.09297211 237.9006929 5.578125 239.73046875 C3.96635724 241.56408095 2.22906891 242.97762802 0.1875 244.3125 C1.45037489 247.73602813 2.9061726 250.57921029 5 253.5625 C7.09044795 256.61698948 8.99325592 259.6797404 10.75 262.9375 C12.56895817 266.29735904 14.587675 269.30331946 16.875 272.35546875 C18.51597596 274.80228112 19.7897526 277.37470888 21.125 280 C23.61068295 284.70734258 25.60409247 286.75431906 30.1875 289.3125 C31.1875 292.3125 31.1875 292.3125 30.9375 295.4375 C31.22469309 299.88899284 32.46124582 301.83601197 34.70703125 305.56640625 C36.46801273 308.83281781 37.74391539 312.206072 39 315.6875 C43.58993898 328.31581647 48.95661216 340.61143314 54.4375 352.875 C58.38906331 361.72888581 62.10800054 370.33708157 64.4765625 379.76953125 C65.14458622 382.34321053 65.14458622 382.34321053 66.21484375 384.84375 C67.16544368 387.25651769 67.6825769 389.45080025 68.125 392 C69.48713996 399.13803574 71.63309546 405.89200395 74.1875 412.6875 C76.32716614 418.4613319 77.78667476 424.32334298 79.1875 430.3125 C80.67048082 436.38961021 82.24502195 442.42616098 84.1875 448.375 C85.5890237 453.17083891 86.0248139 458.15929223 86.625 463.10546875 C87.12301156 465.94482631 87.72772003 467.86128613 89.1875 470.3125 C90.1775 469.9825 91.1675 469.6525 92.1875 469.3125 C91.5838653 465.35371839 91.5838653 465.35371839 90.64697266 461.46679688 C90.07190454 458.77051576 90.16125512 456.3482042 90.2734375 453.59375 C90.31726563 452.49675781 90.36109375 451.39976562 90.40625 450.26953125 C90.48359375 448.55830078 90.48359375 448.55830078 90.5625 446.8125 C90.60632813 445.67167969 90.65015625 444.53085937 90.6953125 443.35546875 C90.88577373 438.85317695 91.06616289 434.67969335 92.1875 430.3125 C92.22638349 427.97949067 92.2323635 425.64540199 92.1875 423.3125 C90.929375 423.10625 89.67125 422.9 88.375 422.6875 C86.23046875 422.3359375 86.23046875 422.3359375 84.1875 421.3125 C81.37970401 416.74009865 80.77371569 413.12925628 80.640625 407.80859375 C80.6197583 407.09650757 80.5988916 406.38442139 80.57739258 405.65075684 C80.51515445 403.35057069 80.47492116 401.05071396 80.4375 398.75 C80.40348539 397.16414033 80.36930494 395.57828421 80.33496094 393.99243164 C80.16908503 385.40967499 80.09809944 376.8295614 80.4375 368.25 C80.46360352 367.46874756 80.48970703 366.68749512 80.51660156 365.88256836 C80.79778523 360.82624402 81.93093836 356.39034104 83.56982422 351.60083008 C84.20219899 349.25804402 84.25569813 347.46763786 84.0625 345.0625 C83.84995959 339.57509313 85.88977719 334.99583658 87.82421875 329.93359375 C89.107735 326.52436865 90.20850505 323.11463048 91.25 319.625 C97.9033102 297.66106031 97.9033102 297.66106031 105.67578125 289.10546875 C107.77441312 286.61639374 109.35762187 283.89149919 111.015625 281.09765625 C112.1875 279.3125 112.1875 279.3125 114.5625 277.0625 C115.09875 276.485 115.635 275.9075 116.1875 275.3125 C116.05108623 273.09391747 116.05108623 273.09391747 115.1875 271.3125 C109.67630412 271.96814227 107.81266356 274.36376215 104.359375 278.47265625 C94.37361506 291.52957617 83.43210673 308.21093313 80.875 324.5625 C79.56058014 331.59604457 77.34242664 337.45625242 73.1875 343.3125 C70.05349115 344.87950442 66.55594905 345.16414561 63.1875 344.3125 C59.59350273 340.76526477 58.06947297 336.87924589 56.6875 332.125 C56.47955811 331.43591553 56.27161621 330.74683105 56.05737305 330.03686523 C53.87575656 322.60737404 52.2303259 315.06043554 50.64697266 307.48486328 C49.85785994 303.7539786 49.02148567 300.03356864 48.1875 296.3125 C47.5275 296.2312085 46.8675 296.14991699 46.1875 296.06616211 C43.68469096 295.72398119 41.53463831 295.25554664 39.1875 294.3125 C37.72211679 291.78597722 37.01280791 290.0199535 36.1875 287.3125 C35.57314301 286.10235727 34.9364271 284.90338189 34.28125 283.71484375 C31.87488167 278.97530876 30.64543999 274.17077781 29.5 269 C29.28287354 268.04810791 29.06574707 267.09621582 28.84204102 266.11547852 C27.28890258 258.87130438 26.59312314 251.79856334 26.63989258 244.39135742 C26.59646694 239.29138274 25.61197959 237.03127081 22.1875 233.3125 C21.75 230.125 21.75 230.125 22.1875 227.3125 C23.1775 226.6525 24.1675 225.9925 25.1875 225.3125 C25.76498803 223.34888136 25.76498803 223.34888136 25.875 221.1875 C25.978125 219.90875 26.08125 218.63 26.1875 217.3125 C25.5275 217.3125 24.8675 217.3125 24.1875 217.3125 Z M-66.8125 367.3125 C-66.8125 368.6325 -66.8125 369.9525 -66.8125 371.3125 C-60.62541628 374.86246607 -56.00853589 377.27197145 -48.8125 376.3125 C-46.77976926 375.38083174 -44.77865661 374.3775015 -42.8125 373.3125 C-40.16299061 372.51764718 -37.51458417 371.91813955 -34.8125 371.3125 C-34.8125 370.9825 -34.8125 370.6525 -34.8125 370.3125 C-35.49763672 370.25715088 -36.18277344 370.20180176 -36.88867188 370.14477539 C-40.03009591 369.88997217 -43.17129638 369.63250565 -46.3125 369.375 C-47.39015625 369.28798828 -48.4678125 369.20097656 -49.578125 369.11132812 C-55.34496547 368.6366187 -61.07775124 368.08502077 -66.8125 367.3125 Z M-24.8125 373.3125 C-24.4825 374.3025 -24.1525 375.2925 -23.8125 376.3125 C-22.14248025 376.74670514 -20.47117883 377.17673867 -18.79296875 377.578125 C-15.72673484 378.71511114 -13.65441393 380.76251649 -11.29296875 382.97265625 C-8.2659818 385.71211937 -5.76494706 385.39842276 -1.8125 385.3125 C-1.85766499 383.41987069 -1.85766499 383.41987069 -2.8125 381.3125 C-9.61006371 376.42675108 -16.44551821 373.45431325 -24.8125 373.3125 Z M7.1875 389.3125 C7.5175 390.3025 7.8475 391.2925 8.1875 392.3125 C8.8475 392.3125 9.5075 392.3125 10.1875 392.3125 C9.8575 391.3225 9.5275 390.3325 9.1875 389.3125 C8.5275 389.3125 7.8675 389.3125 7.1875 389.3125 Z M-23.8125 436.3125 C-20.68468586 438.83881142 -17.51672589 440.73623366 -13.8125 442.3125 C-12.8225 441.9825 -11.8325 441.6525 -10.8125 441.3125 C-12.41282137 440.47180585 -14.01791171 439.64018495 -15.625 438.8125 C-16.51832031 438.3484375 -17.41164063 437.884375 -18.33203125 437.40625 C-20.81818026 436.11076859 -20.81818026 436.11076859 -23.8125 436.3125 Z M-1.8125 448.3125 C1.3790621 451.87017645 4.97518835 454.10550343 9.125 456.375 C13.18070124 458.63294607 17.22233666 460.89728666 21.1875 463.3125 C20.07354149 459.97062446 19.64554953 459.67442855 16.80078125 457.90234375 C15.7634082 457.25362305 15.7634082 457.25362305 14.70507812 456.59179688 C13.97740234 456.14900391 13.24972656 455.70621094 12.5 455.25 C11.79166016 454.80333984 11.08332031 454.35667969 10.35351562 453.89648438 C6.39719415 451.45255172 2.7053125 449.57179577 -1.8125 448.3125 Z M55.1875 458.3125 C55.02047544 462.65513862 55.05750003 465.52210634 57.1875 469.3125 C57.24149736 467.85457116 57.28029177 466.39607288 57.3125 464.9375 C57.33570313 464.12539063 57.35890625 463.31328125 57.3828125 462.4765625 C57.40120051 460.09907757 57.40120051 460.09907757 55.1875 458.3125 Z M90.1875 473.3125 C90.52285097 481.77722103 91.21841259 489.50945277 93.48828125 497.703125 C94.3457222 500.90296052 94.81395923 504.02534118 95.1875 507.3125 C95.8475 507.3125 96.5075 507.3125 97.1875 507.3125 C100.31033677 500.36466076 100.31033677 500.36466076 103.1875 493.3125 C102.1975 492.77625 101.2075 492.24 100.1875 491.6875 C97.45563052 489.50072185 97.19992398 488.42005268 96.7890625 484.86328125 C96.81049779 481.33003097 96.93002919 477.83603565 97.1875 474.3125 C94.8775 473.9825 92.5675 473.6525 90.1875 473.3125 Z M59.1875 481.3125 C58.93355469 481.93898438 58.67960937 482.56546875 58.41796875 483.2109375 C58.07378906 484.02820313 57.72960937 484.84546875 57.375 485.6875 C57.03855469 486.49960937 56.70210938 487.31171875 56.35546875 488.1484375 C55.1875 490.3125 55.1875 490.3125 52.1875 492.3125 C52.86150718 496.22364026 54.73006033 499.18369182 56.75 502.5625 C57.71099609 504.17898438 57.71099609 504.17898438 58.69140625 505.828125 C59.18511719 506.64796875 59.67882812 507.4678125 60.1875 508.3125 C60.8475 507.9825 61.5075 507.6525 62.1875 507.3125 C62.07745839 503.72854315 61.94686703 500.14562083 61.8125 496.5625 C61.7815625 495.54671875 61.750625 494.5309375 61.71875 493.484375 C61.68007813 492.5046875 61.64140625 491.525 61.6015625 490.515625 C61.5701416 489.61489258 61.5387207 488.71416016 61.50634766 487.78613281 C61.17612744 485.22427125 60.47798327 483.53122563 59.1875 481.3125 Z M87.1875 608.3125 C85.66228399 610.04063689 85.66228399 610.04063689 84.0859375 612.2734375 C80.34215438 617.22189372 76.21888565 621.57900984 71.8125 625.9375 C70.75675781 627.00484375 70.75675781 627.00484375 69.6796875 628.09375 C65.44091253 632.31705499 61.04969198 636.10624816 56.28076172 639.71826172 C52.38714158 642.68366171 48.70933179 645.90501366 44.984375 649.078125 C42.1875 651.3125 42.1875 651.3125 39.5859375 652.6171875 C32.07675102 657.9249838 29.09679828 671.1579483 27.56005859 679.76586914 C26.90103002 684.27067063 26.5004076 688.77161471 26.1875 693.3125 C26.10435547 694.4247998 26.02121094 695.53709961 25.93554688 696.68310547 C25.70372388 700.20574349 25.55582813 703.72184945 25.4375 707.25 C25.37304688 708.35794922 25.30859375 709.46589844 25.2421875 710.60742188 C25.08806857 716.49609096 25.08806857 716.49609096 28.07495117 721.30273438 C30.38149989 722.86701418 32.66948343 724.12381227 35.1875 725.3125 C36.03957031 725.79976562 36.89164062 726.28703125 37.76953125 726.7890625 C38.50558594 727.16804687 39.24164063 727.54703125 40 727.9375 C44.48478167 730.32062666 48.8093105 732.89930653 53.13232422 735.55932617 C60.72877953 740.21402404 68.39008702 744.66676911 76.375 748.625 C77.50421875 749.21148315 77.50421875 749.21148315 78.65625 749.80981445 C84.10823246 752.42141573 88.30836996 752.76370051 94.1875 751.3125 C96.77638847 750.38061882 96.77638847 750.38061882 98.9375 749.0625 C102.81516508 746.96662806 106.68099129 745.29096687 110.8125 743.75 C118.63790204 740.80288953 125.50404614 737.15302431 132.6328125 732.80859375 C135.02862966 731.40553874 137.44210752 730.15246978 139.9375 728.9375 C155.43607542 722.2074162 155.43607542 722.2074162 167.1875 711.3125 C167.66549871 705.18535182 166.91399431 699.21470081 165.875 693.1875 C165.75705078 692.42824219 165.63910156 691.66898438 165.51757812 690.88671875 C164.68807447 685.94372774 163.27688315 681.8635766 161.1875 677.3125 C160.7707102 675.96463589 160.37168779 674.61099213 160 673.25 C157.15149942 664.50960084 151.94260353 655.66915838 145.6796875 648.94921875 C143.89935665 646.99644747 142.34040031 644.92243108 140.75 642.8125 C132.54500044 632.24274074 123.00331337 625.45948032 110.9375 619.734375 C108.50417593 618.47623585 106.60151432 617.16930347 104.5 615.4375 C100.55237839 612.9050635 98.63682494 613.16314007 94.13671875 613.46875 C93.49347656 613.4171875 92.85023438 613.365625 92.1875 613.3125 C90.25 610.8125 90.25 610.8125 89.1875 608.3125 C88.5275 608.3125 87.8675 608.3125 87.1875 608.3125 Z M179.1875 662.3125 C180.35522111 666.87353072 180.35522111 666.87353072 182.16796875 671.1953125 C183.39017519 673.73338104 183.98460399 676.19501312 184.625 678.9375 C185.95521349 684.46195807 187.49563648 689.88893751 189.1875 695.3125 C190.8375 694.6525 192.4875 693.9925 194.1875 693.3125 C193.960625 692.054375 193.73375 690.79625 193.5 689.5 C193.03894637 685.61889186 193.03894637 685.61889186 194.1875 683.25 C197.31113049 681.78579821 199.90052493 682.63029763 203.1875 683.3125 C203.91774303 681.48797265 203.91774303 681.48797265 204.1875 679.3125 C201.13885184 673.62067308 195.38261661 670.09464809 190 666.875 C189.28908203 666.42962891 188.57816406 665.98425781 187.84570312 665.52539062 C183.82848372 662.94904088 183.82848372 662.94904088 179.1875 662.3125 Z M-10.96875 670.17578125 C-13.03602943 671.45031157 -15.12773214 672.33236562 -17.375 673.25 C-21.4854097 674.99275817 -23.91203301 676.94421575 -26.8125 680.3125 C-22.83094875 686.84224406 -17.81328795 692.91211728 -10.8125 696.3125 C-10.1525 696.3125 -9.4925 696.3125 -8.8125 696.3125 C-5.37010369 681.97213204 -5.37010369 681.97213204 -4.8125 667.3125 C-7.51668889 667.3125 -8.8182987 668.67362777 -10.96875 670.17578125 Z M-62.21875 704.68359375 C-66.02230111 708.53869901 -68.86583978 712.79244744 -71.8125 717.3125 C-73.67705439 719.90942445 -75.55082966 722.49934846 -77.4296875 725.0859375 C-78.77165206 727.24672789 -79.56497291 728.78341882 -79.8125 731.3125 C-79.1525 731.9725 -78.4925 732.6325 -77.8125 733.3125 C-78.1875 735.4375 -78.1875 735.4375 -78.8125 737.3125 C-80.4625 737.3125 -82.1125 737.3125 -83.8125 737.3125 C-89.38843939 746.12608162 -89.50065072 755.02583316 -88.8125 765.3125 C-88.10771152 768.29183313 -87.1547445 770.52476143 -85.8125 773.3125 C-85.55082031 773.98023438 -85.28914062 774.64796875 -85.01953125 775.3359375 C-81.38576448 781.28637758 -71.96053478 783.48521309 -65.49658203 785.15795898 C-49.50243687 788.82589098 -31.65012172 789.283823 -15.7421875 785.0390625 C-11.78688295 784.05814697 -7.88467124 783.81670679 -3.82421875 783.62109375 C-2.82841797 783.46833984 -2.82841797 783.46833984 -1.8125 783.3125 C-1.4825 782.6525 -1.1525 781.9925 -0.8125 781.3125 C-1.0909375 780.6628125 -1.369375 780.013125 -1.65625 779.34375 C-3.33639646 774.93904172 -3.73337662 770.4733824 -4.3125 765.8125 C-4.57535185 763.83461295 -4.83837205 761.85674827 -5.1015625 759.87890625 C-5.52243535 756.63927847 -5.91957188 753.39991695 -6.2734375 750.15234375 C-6.98294227 743.89361508 -6.98294227 743.89361508 -9.875 738.4375 C-11.3290625 737.385625 -11.3290625 737.385625 -12.8125 736.3125 C-14.21196441 735.23386142 -15.60741011 734.14999952 -17 733.0625 C-17.77601563 732.46953125 -18.55203125 731.8765625 -19.3515625 731.265625 C-22.8441692 728.49371492 -26.11791085 725.50533004 -29.40625 722.49609375 C-31.52609488 720.57240335 -33.68705149 718.71999626 -35.875 716.875 C-41.47655893 712.00062113 -46.45178858 706.40554891 -50.953125 700.5078125 C-51.56671875 699.78335938 -52.1803125 699.05890625 -52.8125 698.3125 C-56.69639135 698.3125 -59.49124594 702.17946287 -62.21875 704.68359375 Z M229.6875 706.5 C228.7490625 707.09167969 227.810625 707.68335938 226.84375 708.29296875 C224.08065957 710.39373015 222.33696589 712.60483948 220.1875 715.3125 C218.3166812 716.84924401 216.39604925 718.32675372 214.4375 719.75 C213.36065634 720.5390342 212.28383343 721.32809671 211.20703125 722.1171875 C209.71236328 723.20386719 209.71236328 723.20386719 208.1875 724.3125 C206.20687244 725.79885964 204.23270087 727.29264051 202.265625 728.796875 C200.66660698 729.96307611 199.0214708 731.06623158 197.359375 732.140625 C191.68087448 735.91638189 188.11775674 738.48940035 186.65234375 745.33203125 C186.1875 747.3125 186.1875 747.3125 184.1875 750.3125 C184.02036431 752.68718476 184.02036431 752.68718476 184.1875 755.3125 C184.29626385 761.20128574 183.43466583 766.5738518 182.1875 772.3125 C181.99671875 773.20066406 181.8059375 774.08882812 181.609375 775.00390625 C181.14803891 777.10957597 180.66969471 779.21150875 180.1875 781.3125 C184.51835242 783.36260766 188.78803845 783.86492582 193.5 784.3125 C197.80805233 784.72829057 201.83455888 785.21735311 206.02734375 786.34765625 C218.33098633 789.59174238 232.932771 788.17538846 245.125 785.125 C245.9097168 784.92898193 246.69443359 784.73296387 247.50292969 784.53100586 C254.18905151 782.65995395 260.78898033 779.90037649 265.5625 774.75 C269.32922353 766.781931 271.11037144 758.97287448 269.1875 750.3125 C268.92259766 749.01892578 268.92259766 749.01892578 268.65234375 747.69921875 C265.66868555 735.06780351 258.45108144 725.73495905 250.43701172 715.875 C248.35958435 713.27720102 246.42426659 710.57827346 244.50390625 707.86328125 C242.88543056 705.95664965 241.31687716 704.62992774 239.1875 703.3125 C234.68469882 703.3125 233.39075523 704.11424904 229.6875 706.5 Z M140 768.1875 C139.1028125 769.239375 139.1028125 769.239375 138.1875 770.3125 C141.78664789 772.67444081 145.00806226 773.99245697 149.1875 775 C150.198125 775.25136719 151.20875 775.50273438 152.25 775.76171875 C154.98217062 776.27400074 157.41749123 776.41943049 160.1875 776.3125 C160.86154284 773.75173903 161.526914 771.18923417 162.1875 768.625 C162.47367188 767.5431543 162.47367188 767.5431543 162.765625 766.43945312 C163.73615428 762.64399039 164.43705239 759.26634561 164.1875 755.3125 C156.98657672 755.3125 144.90838429 763.27911571 140 768.1875 Z M33.1875 764.3125 C33.5175 766.9525 33.8475 769.5925 34.1875 772.3125 C36.54117713 773.0003236 36.54117713 773.0003236 39.1875 773.3125 C40.1775 772.6525 41.1675 771.9925 42.1875 771.3125 C40.8456656 767.28699681 38.7647427 766.42964364 35.1875 764.3125 C34.5275 764.3125 33.8675 764.3125 33.1875 764.3125 Z M55.62817383 802.95141602 C51.5250765 804.821763 47.53383063 806.17284518 43.1875 807.3125 C43.43745493 810.24880876 43.43745493 810.24880876 45.1875 813.3125 C47.5237129 814.52605806 49.90853424 815.32793693 52.390625 816.203125 C60.85777617 819.56160395 67.11145246 825.17544568 71.1875 833.3125 C72.12222023 836.30194546 72.22843379 838.75343835 72.00390625 841.8671875 C71.96458984 842.72957031 71.92527344 843.59195313 71.88476562 844.48046875 C71.79523165 846.27893375 71.67820151 848.07624887 71.53320312 849.87109375 C71.31929546 854.97664848 71.31929546 854.97664848 73.87646484 859.19873047 C75.91774984 860.73780575 77.97030213 862.04344424 80.1875 863.3125 C80.81011719 863.73748779 81.43273437 864.16247559 82.07421875 864.6003418 C87.85496727 868.49587345 95.26340054 868.53854077 101.98046875 867.75488281 C114.16918209 865.31174691 123.42788569 857.35863592 130.1875 847.3125 C131.08275391 846.14460937 131.08275391 846.14460937 131.99609375 844.953125 C139.53240403 834.94947038 144.90461991 823.03406656 149.1875 811.3125 C144.10042918 808.99405622 139.38567169 807.21349726 133.8125 806.5625 C123.18470137 805.04032497 113.18860662 799.90541114 103.3984375 795.67578125 C85.94428661 788.40668977 71.81431177 795.51310625 55.62817383 802.95141602 Z " fill="#FFFFFF" transform="translate(425.8125,12.6875)"/>
<path d="M0 0 C1.53986886 -0.0164124 3.07966634 -0.04350323 4.61914062 -0.08203125 C18.32039308 -0.42241665 31.3703309 1.80839566 41.96142578 11.35009766 C51.23658966 21.73767989 55.77051516 31.4483331 55.96142578 45.35009766 C55.98591797 46.39294922 56.01041016 47.43580078 56.03564453 48.51025391 C55.75500936 60.66618791 49.69035619 72.86520186 40.96142578 81.35009766 C38.40891581 83.06861922 35.8243123 84.24334074 32.96142578 85.35009766 C31.73146409 85.88995662 30.50225774 86.43154078 29.27392578 86.97509766 C27.63423828 87.65572266 27.63423828 87.65572266 25.96142578 88.35009766 C24.77419922 88.85283203 24.77419922 88.85283203 23.56298828 89.36572266 C10.37622698 94.35530801 -5.80941438 93.70639588 -19.03857422 89.35009766 C-23.13962661 87.10894465 -26.55014916 84.4453025 -30.03857422 81.35009766 C-31.13105469 80.45484375 -31.13105469 80.45484375 -32.24560547 79.54150391 C-40.44224838 72.25385772 -46.18185842 60.11904926 -48.03857422 49.35009766 C-48.5860532 38.96072906 -46.68894782 26.44992349 -40.01123047 18.17822266 C-28.53544704 5.70998294 -16.76223863 0.13032209 0 0 Z " fill="#FFFFFF" transform="translate(515.03857421875,653.64990234375)"/>
<path d="M0 0 C2.4375 0.6875 2.4375 0.6875 5 2 C6.0625 4.375 6.0625 4.375 6 7 C4.0625 9.3125 4.0625 9.3125 2 11 C-2.66743383 8.60644419 -2.66743383 8.60644419 -4.0625 6.0625 C-4 4 -4 4 -2.0625 1.75 C-1.381875 1.1725 -0.70125 0.595 0 0 Z " fill="#FFFFFF" transform="translate(251,519)"/>
<path d="M0 0 C4.875 2.625 4.875 2.625 6 6 C4.35 7.65 2.7 9.3 1 11 C-3.875 8.375 -3.875 8.375 -5 5 C-3.35 3.35 -1.7 1.7 0 0 Z " fill="#FFFFFF" transform="translate(225,492)"/>
<path d="M0 0 C2 1 2 1 2 1 Z " fill="#FFFFFF" transform="translate(394,747)"/>
</svg>
