<?xml version="1.0" encoding="UTF-8"?>
<svg version="1.1" xmlns="http://www.w3.org/2000/svg" width="136" height="129">
<path d="M0 0 C3.62613199 0.56959153 5.25517741 1.92374534 7.75 4.5625 C8.36359375 5.20316406 8.9771875 5.84382812 9.609375 6.50390625 C10.06828125 6.99761719 10.5271875 7.49132812 11 8 C9.60249952 11.15835107 7.94801766 13.32272825 5.5 15.75 C4.8915625 16.36359375 4.283125 16.9771875 3.65625 17.609375 C2 19 2 19 0 19 C0 17.35 0 15.7 0 14 C-16.64149272 17.20871895 -30.29157458 22.12842454 -40.7421875 36.375 C-49.20911548 49.51769418 -50.99463617 63.65906863 -48.31640625 78.88671875 C-47.64112074 81.61694007 -46.83691066 84.31491164 -46 87 C-41.71 87 -37.42 87 -33 87 C-33.11333909 82.42175928 -33.11333909 82.42175928 -34 78 C-36.88452275 75.97343617 -36.88452275 75.97343617 -40 75 C-41.47899501 72.04200997 -41.13178874 69.3516424 -41.125 66.0625 C-41.12886719 64.19271484 -41.12886719 64.19271484 -41.1328125 62.28515625 C-41 59 -41 59 -40 56 C-39.01 55.401875 -38.02 54.80375 -37 54.1875 C-33.77289687 52.2867285 -33.77289687 52.2867285 -33.0625 49.0625 C-32.829821 46.05618864 -32.829821 46.05618864 -33.8125 43.5625 C-34.04587663 40.3730194 -33.38112412 39.83668152 -31.375 37.4375 C-30.26515719 36.27697944 -29.14080772 35.13009591 -28 34 C-27.2575 33.195625 -26.515 32.39125 -25.75 31.5625 C-22.15020997 29.51716476 -19.46018401 29.80845898 -15.40234375 30.15234375 C-12.33503165 29.95783128 -11.1932104 29.1177451 -9 27 C-7.7483533 24.91665365 -7.7483533 24.91665365 -7 23 C-4.08110852 22.83783936 -1.17120775 22.71908798 1.75 22.625 C2.575 22.57472656 3.4 22.52445313 4.25 22.47265625 C6.63934742 22.41484946 8.67639033 22.43013813 11 23 C13.359375 25.96484375 13.359375 25.96484375 15 29 C18.99096145 30.06900753 22.07783966 30.30738678 26 29 C26.66 29 27.32 29 28 29 C29.20203334 27.97768243 30.36227188 26.90593133 31.5 25.8125 C35.89333039 21.83912031 40.61678873 19.39376403 46 17 C45.1029631 25.52185053 41.85881681 32.81569337 36 39 C37.1446875 38.505 37.1446875 38.505 38.3125 38 C41 37 41 37 44 37 C43.8125 39.8125 43.8125 39.8125 43 43 C40.59196729 44.85233285 39.07258075 46 36 46 C36.86914356 48.55914492 37.60393202 50.714585 39 53 C39.99 53.474375 40.98 53.94875 42 54.4375 C45.38337892 56.19967652 45.62053394 56.7705734 46.875 60.1875 C47.24625 61.445625 47.6175 62.70375 48 64 C48.62648438 63.71125 49.25296875 63.4225 49.8984375 63.125 C50.71570313 62.75375 51.53296875 62.3825 52.375 62 C53.18710938 61.62875 53.99921875 61.2575 54.8359375 60.875 C57 60 57 60 59 60 C59 68.58 59 77.16 59 86 C40.52 86 22.04 86 3 86 C3 79.4 3 72.8 3 66 C4.65 65.34 6.3 64.68 8 64 C7.20882096 62.00016466 7.20882096 62.00016466 6 60 C4.515 59.505 4.515 59.505 3 59 C3 58.01 3 57.02 3 56 C7.7517398 56.43197635 9.92000054 57.32769295 13 61 C11.97296178 58.47753497 11.97296178 58.47753497 10 56 C6.42003741 54.63099646 6.42003741 54.63099646 3 54 C3 52.68 3 51.36 3 50 C8.17804433 50.25258753 10.7978086 52.08244491 14.58203125 55.33203125 C16.17821787 57.2096392 16.59805152 58.59352923 17 61 C17.66 61 18.32 61 19 61 C17.24564579 56.24477675 15.6587082 52.90054572 11 50.5625 C8.31371239 49.39249583 5.88130835 48.72032709 3 48 C3 44.7 3 41.4 3 38 C11.96389884 38.28915803 18.72076155 41.54312582 25.125 47.875 C25.74375 48.57625 26.3625 49.2775 27 50 C21.52406205 42.74570279 15.93494475 38.87010471 7 37 C-1.68999339 36.05509876 -10.25741789 37.93143936 -17.375 43.1875 C-23.23182597 49.46267068 -26.84562896 56.97044871 -27.06640625 65.59375 C-26.75136294 72.39104801 -25.03719327 78.43933758 -21 84 C-18.93935923 85.29007779 -18.93935923 85.29007779 -17 86 C-17.763125 85.154375 -18.52625 84.30875 -19.3125 83.4375 C-24.00633678 77.75689071 -25 73.4645515 -25 66 C-16.42 66 -7.84 66 1 66 C1 67.32 1 68.64 1 70 C-1.8125 72.8125 -1.8125 72.8125 -5 75 C-5.99 74.67 -6.98 74.34 -8 74 C-9.1875 71.4375 -9.1875 71.4375 -10 69 C-10.66 69 -11.32 69 -12 69 C-12.66 69.99 -13.32 70.98 -14 72 C-16.125 73.1875 -16.125 73.1875 -18 74 C-17.67 74.99 -17.34 75.98 -17 77 C-16.67 76.34 -16.34 75.68 -16 75 C-14.69084721 73.96854629 -13.35917857 72.96457834 -12 72 C-9.27573689 74.35277269 -8.1858237 76.62496331 -7 80 C-2.545 79.01 -2.545 79.01 2 78 C2 80.97 2 83.94 2 87 C20.81 87 39.62 87 59 87 C53.99595616 102.01213152 43.8731935 112.86679197 30.1953125 120.58203125 C15.53257256 127.61589635 -1.45917499 129.71050052 -17.203125 125.03515625 C-33.67517133 118.93865866 -47.07092655 108.26846195 -54.69238281 92.27905273 C-61.34318012 77.63518499 -62.93002312 60.17514953 -57.25390625 44.84765625 C-53.13438462 35.49210712 -48.24085542 28.25327541 -41 21 C-40.36191406 20.3503125 -39.72382812 19.700625 -39.06640625 19.03125 C-28.36106374 8.88231822 -14.39773361 4.7937914 0 4 C0 2.68 0 1.36 0 0 Z M24 65 C24.33 65.99 24.66 66.98 25 68 C25.33 67.01 25.66 66.02 26 65 C25.34 65 24.68 65 24 65 Z M40 70 C40 70.99 40 71.98 40 73 C40.66 73 41.32 73 42 73 C42 72.01 42 71.02 42 70 C41.34 70 40.68 70 40 70 Z M45 70 C45 71.32 45 72.64 45 74 C46.32 73.67 47.64 73.34 49 73 C48.67 72.01 48.34 71.02 48 70 C47.01 70 46.02 70 45 70 Z M51 70 C51 70.99 51 71.98 51 73 C51.99 73 52.98 73 54 73 C54 72.01 54 71.02 54 70 C53.01 70 52.02 70 51 70 Z M8 71 C8.33 71.99 8.66 72.98 9 74 C12.63 74 16.26 74 20 74 C20 73.01 20 72.02 20 71 C16.04 71 12.08 71 8 71 Z M8 75 C8 75.99 8 76.98 8 78 C11.96 78 15.92 78 20 78 C20 77.01 20 76.02 20 75 C16.04 75 12.08 75 8 75 Z M40 75 C39.67 76.32 39.34 77.64 39 79 C40.32 79 41.64 79 43 79 C42.67 77.68 42.34 76.36 42 75 C41.34 75 40.68 75 40 75 Z M51 76 C51 76.99 51 77.98 51 79 C51.99 79 52.98 79 54 79 C54 78.01 54 77.02 54 76 C53.01 76 52.02 76 51 76 Z M45 77 C45 77.66 45 78.32 45 79 C45.99 78.67 46.98 78.34 48 78 C47.01 77.67 46.02 77.34 45 77 Z M8 82 C8 82.33 8 82.66 8 83 C23.18 83 38.36 83 54 83 C54 82.67 54 82.34 54 82 C38.82 82 23.64 82 8 82 Z " fill="#FFFFFF" transform="translate(66,0)"/>
<path d="M0 0 C1.32 0 2.64 0 4 0 C4 7.26 4 14.52 4 22 C0.7 22 -2.6 22 -6 22 C-6 19.69 -6 17.38 -6 15 C-6.99 15 -7.98 15 -9 15 C-8.67 17.97 -8.34 20.94 -8 24 C-4.04 24 -0.08 24 4 24 C3.67 24.99 3.34 25.98 3 27 C-5.58 27 -14.16 27 -23 27 C-23 26.01 -23 25.02 -23 24 C-20.36 24 -17.72 24 -15 24 C-15 23.34 -15 22.68 -15 22 C-17.64 22 -20.28 22 -23 22 C-22.67 20.68 -22.34 19.36 -22 18 C-19.03 18 -16.06 18 -13 18 C-13 16.35 -13 14.7 -13 13 C-13.99 13.495 -13.99 13.495 -15 14 C-15 14.66 -15 15.32 -15 16 C-16.98 16 -18.96 16 -21 16 C-18.73847575 10.2048441 -14.9763697 6.57115278 -10 3 C-9.34 3 -8.68 3 -8 3 C-8 5.97 -8 8.94 -8 12 C-7.67 12 -7.34 12 -7 12 C-6.67 8.7 -6.34 5.4 -6 2 C-4.35 1.67 -2.7 1.34 -1 1 C-0.97292861 3.24993359 -0.95357171 5.49996095 -0.9375 7.75 C-0.92589844 9.00296875 -0.91429688 10.2559375 -0.90234375 11.546875 C-0.97978973 14.28536501 -1.17219185 16.41880293 -2 19 C-1.34 18.67 -0.68 18.34 0 18 C0 12.06 0 6.12 0 0 Z " fill="#FFFFFF" transform="translate(64,38)"/>
<path d="M0 0 C-3.32307692 3.93846154 -3.32307692 3.93846154 -6.75 4.25 C-7.4925 4.1675 -8.235 4.085 -9 4 C-8.34 3.67 -7.68 3.34 -7 3 C-6.67 2.01 -6.34 1.02 -6 0 C-3.50907189 -1.24546405 -2.58919267 -0.7767578 0 0 Z " fill="#FFFFFF" transform="translate(118,41)"/>
<path d="M0 0 C-0.33 0.99 -0.66 1.98 -1 3 C-2.98 3 -4.96 3 -7 3 C-5.40442685 -0.19114631 -3.35905282 0 0 0 Z " fill="#FFFFFF" transform="translate(111,47)"/>
<path d="M0 0 C0.66 0 1.32 0 2 0 C2 0.66 2 1.32 2 2 C1.34 2 0.68 2 0 2 C0 1.34 0 0.68 0 0 Z " fill="#FFFFFF" transform="translate(106,76)"/>
</svg>
